<?xml version="1.0" encoding="utf-8"?>
<!-- Generator: Adobe Illustrator 15.0.0, SVG Export Plug-In . SVG Version: 6.00 Build 0)  -->
<!DOCTYPE svg PUBLIC "-//W3C//DTD SVG 1.1//EN" "http://www.w3.org/Graphics/SVG/1.1/DTD/svg11.dtd">
<svg version="1.1" id="Ebene_1" xmlns="http://www.w3.org/2000/svg" xmlns:xlink="http://www.w3.org/1999/xlink" x="0px" y="0px"
	 width="283.703px" height="86.927px" viewBox="0 0 283.703 86.927" enable-background="new 0 0 283.703 86.927"
	 xml:space="preserve">
<path fill="#AAC811" d="M17.831,53.672h-0.064c-0.194,0.387-0.408,0.697-0.644,0.934c-0.237,0.236-0.563,0.429-0.982,0.579
	c-0.418,0.149-0.96,0.252-1.625,0.306c-0.666,0.053-1.535,0.081-2.607,0.081H5.278c-1.995,0-3.374-0.408-4.135-1.224
	C0.381,53.533,0,52.299,0,50.647v-1.094c0-0.902,0.161-1.636,0.483-2.206c0.322-0.568,0.805-1.003,1.448-1.303
	c1.008-0.451,2.854-0.676,5.536-0.676h4.442c1.823,0,3.138,0.128,3.942,0.386c0.805,0.257,1.443,0.783,1.916,1.577h0.064v-3.09
	c0-1.394-0.446-2.301-1.336-2.72c-0.89-0.418-2.484-0.627-4.779-0.627H7.66c-1.63,0-2.731,0.177-3.299,0.531
	c-0.569,0.354-0.853,0.906-0.853,1.657v0.58H0.74v-0.805c0-1.501,0.526-2.58,1.577-3.235c1.052-0.654,2.811-0.981,5.279-0.981h4.377
	c1.416,0,2.634,0.07,3.653,0.209c1.019,0.14,1.899,0.408,2.639,0.804c0.741,0.398,1.315,0.977,1.722,1.739
	c0.408,0.762,0.612,1.733,0.612,2.913v11.007h-2.768V53.672z M17.831,50.164c0-1.072-0.462-1.764-1.384-2.076
	c-0.923-0.31-2.543-0.467-4.86-0.467H7.338c-1.802,0-3.015,0.173-3.637,0.516c-0.622,0.343-0.933,1.03-0.933,2.06v0.514
	c0,0.967,0.29,1.643,0.869,2.028s1.77,0.579,3.573,0.579h3.669c2.639,0,4.457-0.155,5.455-0.466c0.998-0.312,1.497-0.96,1.497-1.947
	V50.164z"/>
<path fill="#AAC811" d="M25.492,38.899h2.575v2.608h0.064c0.386-0.945,1.073-1.658,2.06-2.141c0.987-0.483,2.135-0.724,3.444-0.724
	h5.246c1.073,0,2.055,0.102,2.945,0.306s1.684,0.563,2.382,1.078c0.697,0.515,1.249,1.223,1.657,2.124
	c0.408,0.901,0.612,2.039,0.612,3.412v2.896c0,2.619-0.617,4.458-1.851,5.521c-1.234,1.062-3.299,1.593-6.196,1.593h-5.278
	c-1.438,0-2.527-0.193-3.267-0.579c-0.74-0.386-1.261-1.008-1.561-1.867H28.26v11.271h-2.768V38.899z M43.708,45.594
	c0-1.674-0.349-2.875-1.046-3.605c-0.698-0.729-1.991-1.094-3.879-1.094h-5.503c-1.738,0-3.01,0.413-3.814,1.239
	c-0.805,0.826-1.207,1.991-1.207,3.492v3.122c0,0.945,0.133,1.723,0.402,2.333c0.268,0.612,0.649,1.079,1.143,1.4
	c0.493,0.323,1.051,0.543,1.673,0.66c0.622,0.118,1.341,0.177,2.157,0.177h4.924c1.759,0,3.058-0.306,3.895-0.917
	s1.255-1.807,1.255-3.589V45.594z"/>
<path fill="#AAC811" d="M50.402,45.304c0-1.308,0.22-2.403,0.66-3.283c0.44-0.879,1.062-1.561,1.867-2.043
	c0.805-0.483,1.743-0.826,2.816-1.03c1.073-0.204,2.318-0.306,3.734-0.306h3.959c1.416,0,2.66,0.102,3.733,0.306
	c1.073,0.204,2.012,0.547,2.816,1.03c0.805,0.482,1.427,1.164,1.867,2.043c0.44,0.88,0.66,1.975,0.66,3.283v3.605
	c0,1.31-0.22,2.404-0.66,3.283c-0.44,0.88-1.062,1.561-1.867,2.044c-0.804,0.482-1.743,0.826-2.816,1.03
	c-1.073,0.203-2.317,0.305-3.733,0.305h-3.959c-1.416,0-2.661-0.102-3.734-0.305c-1.073-0.204-2.011-0.548-2.816-1.03
	c-0.805-0.483-1.427-1.164-1.867-2.044c-0.44-0.879-0.66-1.974-0.66-3.283V45.304z M69.746,45.465c0-0.922-0.129-1.689-0.386-2.301
	c-0.258-0.612-0.628-1.079-1.111-1.4c-0.483-0.322-1.046-0.547-1.689-0.676c-0.644-0.129-1.406-0.193-2.286-0.193h-5.632
	c-0.859,0-1.615,0.064-2.269,0.193c-0.655,0.129-1.223,0.354-1.706,0.676c-0.483,0.321-0.853,0.788-1.11,1.4
	c-0.258,0.612-0.386,1.379-0.386,2.301v3.283c0,0.924,0.128,1.69,0.386,2.302c0.257,0.611,0.627,1.078,1.11,1.399
	c0.483,0.322,1.051,0.548,1.706,0.676c0.654,0.13,1.41,0.193,2.269,0.193h5.632c0.88,0,1.642-0.063,2.286-0.193
	c0.643-0.128,1.206-0.354,1.689-0.676c0.483-0.321,0.853-0.788,1.111-1.399c0.257-0.611,0.386-1.378,0.386-2.302V45.465z"/>
<path fill="#706F6F" d="M77.181,38.899h2.575v1.931h0.064c0.558-0.837,1.255-1.41,2.092-1.721s1.974-0.467,3.412-0.467h4.474
	c1.266,0,2.36,0.252,3.283,0.756c0.922,0.504,1.598,1.261,2.027,2.269c0.494-1.073,1.256-1.845,2.286-2.317
	c1.029-0.472,2.295-0.708,3.797-0.708h3.348c2.253,0,4.012,0.482,5.278,1.448c1.266,0.965,1.899,2.371,1.899,4.217v11.007h-2.768
	V44.628c0-0.536-0.075-1.019-0.225-1.448c-0.151-0.429-0.413-0.815-0.789-1.159c-0.375-0.343-0.906-0.617-1.593-0.82
	c-0.687-0.204-1.567-0.306-2.639-0.306h-1.963c-1.202,0-2.184,0.118-2.945,0.354c-0.762,0.236-1.336,0.558-1.722,0.965
	c-0.387,0.408-0.649,0.886-0.789,1.432c-0.14,0.548-0.209,1.197-0.209,1.948v9.72h-2.768v-9.945c0-1.652-0.37-2.812-1.111-3.477
	c-0.74-0.664-2.172-0.997-4.296-0.997h-2.768c-1.738,0-3.037,0.349-3.895,1.046c-0.858,0.697-1.287,1.722-1.287,3.073v10.3h-2.768
	V38.899z"/>
<path fill="#706F6F" d="M133.892,53.672h-0.065c-0.193,0.387-0.407,0.697-0.643,0.934c-0.237,0.236-0.563,0.429-0.982,0.579
	c-0.418,0.149-0.96,0.252-1.625,0.306c-0.666,0.053-1.535,0.081-2.607,0.081h-6.631c-1.995,0-3.374-0.408-4.135-1.224
	c-0.762-0.815-1.143-2.049-1.143-3.701v-1.094c0-0.902,0.161-1.636,0.483-2.206c0.322-0.568,0.805-1.003,1.448-1.303
	c1.008-0.451,2.854-0.676,5.536-0.676h4.442c1.823,0,3.138,0.128,3.942,0.386c0.805,0.257,1.443,0.783,1.915,1.577h0.065v-3.09
	c0-1.394-0.446-2.301-1.336-2.72c-0.89-0.418-2.484-0.627-4.779-0.627h-4.056c-1.63,0-2.731,0.177-3.299,0.531
	c-0.569,0.354-0.853,0.906-0.853,1.657v0.58h-2.768v-0.805c0-1.501,0.526-2.58,1.577-3.235c1.052-0.654,2.811-0.981,5.279-0.981
	h4.377c1.416,0,2.634,0.07,3.653,0.209c1.019,0.14,1.899,0.408,2.639,0.804c0.741,0.398,1.315,0.977,1.722,1.739
	c0.408,0.762,0.612,1.733,0.612,2.913v11.007h-2.768V53.672z M133.892,50.164c0-1.072-0.462-1.764-1.384-2.076
	c-0.923-0.31-2.543-0.467-4.86-0.467h-4.249c-1.802,0-3.015,0.173-3.637,0.516c-0.622,0.343-0.933,1.03-0.933,2.06v0.514
	c0,0.967,0.29,1.643,0.869,2.028s1.77,0.579,3.573,0.579h3.669c2.639,0,4.457-0.155,5.455-0.466c0.998-0.312,1.497-0.96,1.497-1.947
	V50.164z"/>
<path fill="#706F6F" d="M141.777,38.899h2.575v2.382h0.064c0.472-0.987,1.153-1.673,2.044-2.06c0.89-0.386,1.883-0.579,2.977-0.579
	h2.607c2.553,0,4.34,0.434,5.358,1.303c1.02,0.869,1.529,2.334,1.529,4.394v1.963h-2.575v-0.708c0-1.073-0.075-1.904-0.225-2.494
	c-0.151-0.59-0.419-1.047-0.806-1.368c-0.386-0.322-0.943-0.542-1.674-0.66c-0.729-0.118-1.749-0.177-3.057-0.177h-1.706
	c-1.395,0-2.468,0.381-3.218,1.143c-0.752,0.761-1.127,1.711-1.127,2.848v10.428h-2.768V38.899z"/>
<polygon fill="#706F6F" points="162.215,32.012 164.982,32.012 164.982,45.112 166.335,45.112 175.894,38.898 180.208,38.898 
	180.271,38.963 168.941,46.238 182.428,55.25 182.364,55.314 178.05,55.314 166.174,47.364 164.982,47.364 164.982,55.314 
	162.215,55.314 "/>
<path fill="#706F6F" d="M184.52,45.271c0-1.416,0.225-2.575,0.676-3.476c0.45-0.901,1.051-1.577,1.803-2.028
	c0.751-0.45,1.581-0.75,2.494-0.901c0.911-0.15,1.937-0.225,3.073-0.225h4.442c1.351,0,2.531,0.102,3.541,0.306
	c1.007,0.204,1.887,0.569,2.638,1.094c0.752,0.526,1.33,1.255,1.738,2.188c0.408,0.934,0.611,2.109,0.611,3.525v1.834h-18.249v1.03
	c0,1.825,0.488,3.064,1.465,3.718c0.976,0.655,2.697,0.981,5.166,0.981h3.798c1.823,0,3.1-0.193,3.83-0.578
	c0.729-0.387,1.137-1.18,1.223-2.383h2.768v0.322c0,1.803-0.691,3.068-2.075,3.799c-1.385,0.729-3.449,1.094-6.196,1.094h-5.021
	c-1.072,0-2.038-0.076-2.896-0.227c-0.859-0.149-1.658-0.454-2.398-0.917c-0.74-0.461-1.331-1.147-1.771-2.06
	c-0.44-0.912-0.659-2.086-0.659-3.524V45.271z M202.769,44.242c0-0.451-0.096-0.874-0.289-1.271
	c-0.194-0.397-0.505-0.751-0.934-1.062c-0.431-0.311-1.021-0.558-1.771-0.741c-0.752-0.182-1.674-0.273-2.768-0.273h-4.056
	c-1.158,0-2.076,0.059-2.753,0.177c-0.675,0.118-1.218,0.333-1.625,0.644s-0.708,0.751-0.9,1.319
	c-0.193,0.569-0.322,1.336-0.387,2.302h15.481V44.242z"/>
<path fill="#706F6F" d="M210.107,38.899h2.575v2.382h0.064c0.472-0.987,1.153-1.673,2.043-2.06c0.891-0.386,1.884-0.579,2.979-0.579
	h2.606c2.554,0,4.34,0.434,5.359,1.303c1.02,0.869,1.528,2.334,1.528,4.394v1.963h-2.575v-0.708c0-1.073-0.075-1.904-0.225-2.494
	c-0.15-0.59-0.419-1.047-0.806-1.368c-0.385-0.322-0.943-0.542-1.674-0.66c-0.729-0.118-1.749-0.177-3.057-0.177h-1.706
	c-1.395,0-2.468,0.381-3.218,1.143c-0.753,0.761-1.128,1.711-1.128,2.848v10.428h-2.768V38.899z"/>
<g>
	<defs>
		<path id="SVGID_1_" d="M255.246,8.139L255.246,8.139C255.245,8.139,255.245,8.139,255.246,8.139 M276.778,0.151
			c0,0-4.652,3.355-11.938,5.479c-5.195,1.514-9.578,2.507-9.595,2.509l7.438,2.369c-4.397,2.583-10.423,4.054-15.281,5.373
			c-4.958,1.346-6.445,3.68-6.87,5.22v15.27c0.392-1.537,1.993-3.457,6.893-5.307c7.374-2.786,15.137-4.327,21.487-8.211
			c5.848-3.576,6.982-5.432,8.123-7.115l6.667,1.6c0,0-2.63-4.477-4.064-9.199C277.469,1,276.941,0,276.815,0
			C276.766,0,276.778,0.151,276.778,0.151"/>
	</defs>
	<clipPath id="SVGID_2_">
		<use xlink:href="#SVGID_1_"  overflow="visible"/>
	</clipPath>
	
		<linearGradient id="SVGID_3_" gradientUnits="userSpaceOnUse" x1="-76.6069" y1="149.4282" x2="-75.6069" y2="149.4282" gradientTransform="matrix(43.1703 0 0 -43.1703 3547.6924 6469.0601)">
		<stop  offset="0" style="stop-color:#000000"/>
		<stop  offset="0.0323" style="stop-color:#000000"/>
		<stop  offset="0.0512" style="stop-color:#0B0A0A"/>
		<stop  offset="0.2033" style="stop-color:#363535"/>
		<stop  offset="0.3172" style="stop-color:#3C3C3B"/>
		<stop  offset="0.5538" style="stop-color:#706F6F"/>
		<stop  offset="0.7527" style="stop-color:#575756"/>
		<stop  offset="1" style="stop-color:#3C3C3B"/>
	</linearGradient>
	<rect x="240.533" y="0" clip-path="url(#SVGID_2_)" fill="url(#SVGID_3_)" width="43.17" height="36.371"/>
</g>
<g>
	<defs>
		<path id="SVGID_4_" d="M274.645,41.173c-3.803,0.412-22.613,1.637-24.978,9.125v15.353c2.364-7.486,13.818-8.14,21.351-9.978
			c7.43-1.813,7.43-6.565,7.43-6.565V37.621C278.448,37.621,278.448,40.763,274.645,41.173"/>
	</defs>
	<clipPath id="SVGID_5_">
		<use xlink:href="#SVGID_4_"  overflow="visible"/>
	</clipPath>
	
		<linearGradient id="SVGID_6_" gradientUnits="userSpaceOnUse" x1="-76.6069" y1="149.4282" x2="-75.6069" y2="149.4282" gradientTransform="matrix(28.7809 0 0 -28.7809 2454.4819 4352.312)">
		<stop  offset="0" style="stop-color:#000000"/>
		<stop  offset="0.0323" style="stop-color:#000000"/>
		<stop  offset="0.3602" style="stop-color:#575756"/>
		<stop  offset="0.3695" style="stop-color:#5A5A59"/>
		<stop  offset="0.4441" style="stop-color:#6A6A69"/>
		<stop  offset="0.5" style="stop-color:#706F6F"/>
		<stop  offset="0.6398" style="stop-color:#575756"/>
		<stop  offset="0.7179" style="stop-color:#494848"/>
		<stop  offset="0.8955" style="stop-color:#212120"/>
		<stop  offset="1" style="stop-color:#000000"/>
	</linearGradient>
	<rect x="249.667" y="37.621" clip-path="url(#SVGID_5_)" fill="url(#SVGID_6_)" width="28.78" height="28.03"/>
</g>
<g>
	<defs>
		<path id="SVGID_7_" d="M255.245,69.922c0,0,7.19,2.659,8.404,6.403c1.507,4.648-3.013,10.602-3.013,10.602
			c9.008-4.282,9.485-9.845,9.485-9.845v-1.31c0,0-0.678-3.594-2.2-5.734c-0.527-0.74-2.205-0.982-4.177-0.982
			C260.018,69.056,255.245,69.922,255.245,69.922"/>
	</defs>
	<clipPath id="SVGID_8_">
		<use xlink:href="#SVGID_7_"  overflow="visible"/>
	</clipPath>
	
		<linearGradient id="SVGID_9_" gradientUnits="userSpaceOnUse" x1="-76.6064" y1="149.4282" x2="-75.6064" y2="149.4282" gradientTransform="matrix(14.8765 0 0 -14.8765 1394.8887 2300.9573)">
		<stop  offset="0" style="stop-color:#000000"/>
		<stop  offset="0.0914" style="stop-color:#000000"/>
		<stop  offset="0.1025" style="stop-color:#0B0A0A"/>
		<stop  offset="0.1914" style="stop-color:#363535"/>
		<stop  offset="0.2581" style="stop-color:#3C3C3B"/>
		<stop  offset="0.4301" style="stop-color:#3C3C3B"/>
		<stop  offset="0.586" style="stop-color:#575756"/>
		<stop  offset="0.7957" style="stop-color:#575756"/>
		<stop  offset="0.9677" style="stop-color:#000000"/>
		<stop  offset="1" style="stop-color:#000000"/>
	</linearGradient>
	<rect x="255.245" y="69.056" clip-path="url(#SVGID_8_)" fill="url(#SVGID_9_)" width="14.877" height="17.871"/>
</g>
<g>
	<defs>
		<path id="SVGID_10_" d="M240.533,36.994c0,0,1.903,4.112,9.74,5.551s27.25,4.491,28.175,6.563V33.773
			c-0.925-2.071-20.338-5.124-28.175-6.563c-7.837-1.439-9.74-5.551-9.74-5.551V36.994z"/>
	</defs>
	<clipPath id="SVGID_11_">
		<use xlink:href="#SVGID_10_"  overflow="visible"/>
	</clipPath>
	
		<linearGradient id="SVGID_12_" gradientUnits="userSpaceOnUse" x1="-76.6069" y1="149.4282" x2="-75.6069" y2="149.4282" gradientTransform="matrix(37.9152 0 0 -37.9152 3145.1052 5700.9668)">
		<stop  offset="0" style="stop-color:#91AB11"/>
		<stop  offset="0.0054" style="stop-color:#91AB11"/>
		<stop  offset="0.2581" style="stop-color:#AAC811"/>
		<stop  offset="0.3101" style="stop-color:#AFCA22"/>
		<stop  offset="0.3962" style="stop-color:#BBD03F"/>
		<stop  offset="0.5049" style="stop-color:#CDDA69"/>
		<stop  offset="0.5968" style="stop-color:#DDE490"/>
		<stop  offset="0.6265" style="stop-color:#D9E287"/>
		<stop  offset="0.6757" style="stop-color:#CFDC6E"/>
		<stop  offset="0.7378" style="stop-color:#BDD144"/>
		<stop  offset="0.7903" style="stop-color:#AAC811"/>
		<stop  offset="0.8492" style="stop-color:#A6C311"/>
		<stop  offset="0.9463" style="stop-color:#99B511"/>
		<stop  offset="1" style="stop-color:#91AB11"/>
	</linearGradient>
	<rect x="240.533" y="21.659" clip-path="url(#SVGID_11_)" fill="url(#SVGID_12_)" width="37.915" height="27.449"/>
</g>
<g>
	<defs>
		<path id="SVGID_13_" d="M249.667,65.651c1.405,3.183,5.577,4.271,5.577,4.271s14.223,1.552,14.877,5.851V61.47
			c-2.438-3.33-12.631-4.18-14.423-5.017c-0.645-0.301-3.304-0.717-6.031-5.598V65.651z"/>
	</defs>
	<clipPath id="SVGID_14_">
		<use xlink:href="#SVGID_13_"  overflow="visible"/>
	</clipPath>
	
		<linearGradient id="SVGID_15_" gradientUnits="userSpaceOnUse" x1="-76.6064" y1="149.4282" x2="-75.6064" y2="149.4282" gradientTransform="matrix(20.455 0 0 -20.455 1816.6636 3119.8699)">
		<stop  offset="0" style="stop-color:#91AB11"/>
		<stop  offset="0.3118" style="stop-color:#AAC811"/>
		<stop  offset="0.3672" style="stop-color:#AFCA22"/>
		<stop  offset="0.4587" style="stop-color:#BBD03F"/>
		<stop  offset="0.5743" style="stop-color:#CDDA69"/>
		<stop  offset="0.672" style="stop-color:#DDE490"/>
		<stop  offset="0.6976" style="stop-color:#D9E287"/>
		<stop  offset="0.74" style="stop-color:#CFDC6E"/>
		<stop  offset="0.7935" style="stop-color:#BDD144"/>
		<stop  offset="0.8387" style="stop-color:#AAC811"/>
		<stop  offset="0.8633" style="stop-color:#A6C311"/>
		<stop  offset="0.9506" style="stop-color:#97B211"/>
		<stop  offset="1" style="stop-color:#91AB11"/>
	</linearGradient>
	<rect x="249.667" y="50.856" clip-path="url(#SVGID_14_)" fill="url(#SVGID_15_)" width="20.454" height="24.917"/>
</g>
</svg>
